<svg width="116" height="138" viewBox="0 0 116 138" fill="none" xmlns="http://www.w3.org/2000/svg">
<g filter="url(#filter0_d_5_57)">
<circle cx="58" cy="49" r="40" fill="#E50513"/>
</g>
<g filter="url(#filter1_d_5_57)">
<path d="M75.5475 58.1241L72.8997 79.8943C72.0172 82.2478 70.252 83.4246 68.1927 85.1897C65.2507 86.8372 63.1424 87.9355 62.603 88.1316L62.5401 88.1489C56.7118 89.7518 55.6706 90.0381 50.3941 88.4258C45.8341 86.2194 41.6417 82.6398 41.127 81.9536C40.6124 81.2675 40.0483 80.4336 39.8032 79.8943L37.3025 57.8299C37.1554 57.6828 37.1849 57.1827 38.4793 56.3589C39.7737 55.5352 46.1773 53.2699 49.2173 52.2403C51.2766 51.5538 56.3073 50.4163 59.9553 51.3577C63.6033 52.2991 70.5952 54.7899 73.6352 55.9177C74.7139 56.3255 76.6065 57.3378 75.5475 58.1241Z" fill="url(#paint0_linear_5_57)"/>
<path d="M37.3025 57.8299C40.0483 59.3499 45.2235 62.5391 49.2173 63.7137C54.2186 65.1847 57.4547 66.0759 65.3978 63.2724C71.3994 61.1543 74.91 58.7615 75.5475 58.1241M37.3025 57.8299L39.8032 79.8943C40.0483 80.4336 40.6124 81.2675 41.127 81.9536C41.6417 82.6398 45.8341 86.2194 50.3941 88.4258C55.6895 90.0439 56.7192 89.7497 62.603 88.1316C63.1424 87.9355 65.2507 86.8372 68.1927 85.1897C70.252 83.4246 72.0172 82.2478 72.8997 79.8943L75.5475 58.1241M37.3025 57.8299C37.1554 57.6828 37.1849 57.1827 38.4793 56.3589C39.7737 55.5352 46.1773 53.2699 49.2173 52.2403C51.2766 51.5538 56.3073 50.4163 59.9553 51.3577C63.6033 52.2991 70.5952 54.7899 73.6352 55.9177C74.7139 56.3255 76.6065 57.3378 75.5475 58.1241" stroke="black" stroke-width="3"/>
<path d="M56.2779 51.6519C51.5708 51.3577 37.4175 57.1409 38.038 57.5357C38.9956 58.1451 42.3195 60.1377 46.1283 61.8015C48.7552 62.949 51.6898 63.8256 53.9244 64.4492C60.2495 66.2144 74.6649 58.4183 74.2236 57.5357C73.8532 56.7949 65.6948 53.2942 59.3669 51.9461C58.1563 51.6881 57.1974 51.7094 56.2779 51.6519Z" fill="white" stroke="white"/>
<path d="M56.2891 61.691C54.877 61.691 52.4646 60.6613 51.4349 60.0729C51.2878 59.9258 53.3472 60.0729 57.1717 60.0729C58.3484 60.0729 61.8787 59.1904 62.4671 59.0433C63.0555 58.8962 63.4968 59.1904 63.0555 59.4845C62.6142 59.7787 57.9071 61.5439 56.2891 61.691Z" fill="#F16310"/>
<path d="M51.8762 59.4845C50.2288 59.3669 49.0814 58.7981 48.7872 58.4549C48.493 58.3078 54.0531 58.1782 57.9072 57.131C58.8066 56.8866 60.1532 56.4526 60.8491 56.2484C61.9768 56.5917 64.548 57.5615 64.2323 57.7194C63.6439 58.0136 62.9083 58.3078 62.1729 58.602C59.3794 59.7194 53.5237 59.6022 51.8762 59.4845Z" fill="#F16310"/>
<path d="M55.7007 55.0717C54.5239 55.307 50.6994 57.033 48.9343 57.8665C48.1988 58.2138 56.9265 56.6897 59.6723 55.9543C60.2214 55.8072 56.8775 54.8363 55.7007 55.0717Z" fill="#F16310"/>
</g>
<g filter="url(#filter2_d_5_57)">
<path d="M54.3053 67.6218L51.6576 89.392C50.775 91.7456 49.0098 92.9223 46.9505 94.6875C44.0086 96.3349 41.9002 97.4333 41.3608 97.6294L41.298 97.6467C35.4696 99.2495 34.4284 99.5359 29.1519 97.9236C24.5919 95.7171 20.3995 92.1375 19.8849 91.4514C19.3702 90.7652 18.8061 89.9314 18.561 89.392L16.0604 67.3276C15.9133 67.1805 15.9427 66.6804 17.2371 65.8567C18.5316 65.0329 24.9351 62.7677 27.9751 61.738C30.0345 61.0516 35.0652 59.914 38.7131 60.8554C42.3611 61.7968 49.3531 64.2877 52.393 65.4154C53.4717 65.8232 55.3644 66.8355 54.3053 67.6218Z" fill="url(#paint1_linear_5_57)"/>
<path d="M16.0604 67.3276C18.8061 68.8476 23.9813 72.0368 27.9751 73.2115C32.9764 74.6824 36.2125 75.5737 44.1557 72.7702C50.1572 70.652 53.6679 68.2592 54.3053 67.6218M16.0604 67.3276L18.561 89.392C18.8061 89.9314 19.3702 90.7652 19.8849 91.4514C20.3995 92.1375 24.5919 95.7171 29.1519 97.9236C34.4473 99.5416 35.477 99.2474 41.3608 97.6294C41.9002 97.4333 44.0086 96.3349 46.9505 94.6875C49.0098 92.9223 50.775 91.7456 51.6576 89.392L54.3053 67.6218M16.0604 67.3276C15.9133 67.1805 15.9427 66.6804 17.2371 65.8567C18.5316 65.0329 24.9351 62.7677 27.9751 61.738C30.0345 61.0516 35.0652 59.914 38.7131 60.8554C42.3611 61.7968 49.3531 64.2877 52.393 65.4154C53.4717 65.8232 55.3644 66.8355 54.3053 67.6218" stroke="black" stroke-width="3"/>
<path d="M35.0357 61.1496C30.3287 60.8554 16.1754 66.6386 16.7959 67.0335C17.7535 67.6428 21.0773 69.6355 24.8861 71.2992C27.513 72.4467 30.4477 73.3234 32.6822 73.947C39.0073 75.7121 53.4227 67.916 52.9814 67.0335C52.611 66.2926 44.4527 62.792 38.1248 61.4438C36.9141 61.1859 35.9552 61.2071 35.0357 61.1496Z" fill="white" stroke="white"/>
<path d="M35.0469 71.1887C33.6348 71.1887 31.2224 70.1591 30.1928 69.5707C30.0457 69.4236 32.105 69.5707 35.9295 69.5707C37.1063 69.5707 40.6365 68.6881 41.225 68.541C41.8133 68.3939 42.2546 68.6881 41.8133 68.9823C41.3721 69.2765 36.665 71.0416 35.0469 71.1887Z" fill="#F16310"/>
<path d="M30.6341 68.9823C28.9866 68.8646 27.8392 68.2958 27.5451 67.9526C27.2509 67.8055 32.8109 67.676 36.665 66.6288C37.5645 66.3844 38.9111 65.9503 39.6069 65.7462C40.7347 66.0894 43.3059 67.0593 42.9901 67.2171C42.4018 67.5113 41.6662 67.8056 40.9308 68.0997C38.1373 69.2171 32.2815 69.1 30.6341 68.9823Z" fill="#F16310"/>
<path d="M34.4585 64.5694C33.2818 64.8048 29.4573 66.5307 27.6921 67.3642C26.9567 67.7116 35.6843 66.1875 38.4301 65.452C38.9793 65.3049 35.6353 64.3341 34.4585 64.5694Z" fill="#F16310"/>
</g>
<g filter="url(#filter3_d_5_57)">
<path d="M98.2002 67.5382L95.5525 89.3084C94.6699 91.662 92.9048 92.8387 90.8454 94.6039C87.9035 96.2513 85.7951 97.3497 85.2558 97.5458L85.1929 97.5631C79.3645 99.1659 78.3234 99.4523 73.0468 97.84C68.4868 95.6335 64.2944 92.0539 63.7798 91.3678C63.2652 90.6816 62.7011 89.8478 62.4559 89.3084L59.9553 67.244C59.8082 67.0969 59.8376 66.5968 61.1321 65.7731C62.4265 64.9493 68.8301 62.6841 71.8701 61.6544C73.9294 60.9679 78.9601 59.8304 82.6081 60.7718C86.256 61.7132 93.248 64.2041 96.288 65.3318C97.3667 65.7396 99.2593 66.7519 98.2002 67.5382Z" fill="url(#paint2_linear_5_57)"/>
<path d="M59.9553 67.244C62.7011 68.764 67.8762 71.9532 71.8701 73.1279C76.8713 74.5988 80.1074 75.4901 88.0506 72.6866C94.0521 70.5684 97.5628 68.1756 98.2002 67.5382M59.9553 67.244L62.4559 89.3084C62.7011 89.8478 63.2652 90.6816 63.7798 91.3678C64.2944 92.0539 68.4868 95.6335 73.0468 97.84C78.3423 99.458 79.3719 99.1638 85.2558 97.5458C85.7951 97.3497 87.9035 96.2513 90.8454 94.6039C92.9048 92.8387 94.6699 91.662 95.5525 89.3084L98.2002 67.5382M59.9553 67.244C59.8082 67.0969 59.8376 66.5968 61.1321 65.7731C62.4265 64.9493 68.8301 62.6841 71.8701 61.6544C73.9294 60.9679 78.9601 59.8304 82.6081 60.7718C86.256 61.7132 93.248 64.2041 96.288 65.3318C97.3667 65.7396 99.2593 66.7519 98.2002 67.5382" stroke="black" stroke-width="3"/>
<path d="M78.9306 61.066C74.2236 60.7718 60.0703 66.555 60.6908 66.9499C61.6484 67.5592 64.9722 69.5519 68.781 71.2156C71.4079 72.3631 74.3426 73.2398 76.5771 73.8634C82.9022 75.6285 97.3176 67.8324 96.8763 66.9499C96.5059 66.209 88.3476 62.7084 82.0196 61.3602C80.809 61.1023 79.8501 61.1235 78.9306 61.066Z" fill="white" stroke="white"/>
<path d="M78.9418 71.1051C77.5297 71.1051 75.1174 70.0755 74.0877 69.4871C73.9406 69.34 75.9999 69.4871 79.8244 69.4871C81.0012 69.4871 84.5314 68.6045 85.1199 68.4574C85.7083 68.3103 86.1495 68.6045 85.7083 68.8987C85.267 69.1929 80.5599 70.958 78.9418 71.1051Z" fill="#F16310"/>
<path d="M74.529 68.8987C72.8815 68.781 71.7342 68.2122 71.44 67.869C71.1458 67.7219 76.7059 67.5924 80.5599 66.5452C81.4594 66.3008 82.806 65.8667 83.5018 65.6626C84.6296 66.0058 87.2008 66.9757 86.885 67.1335C86.2967 67.4277 85.5611 67.7219 84.8257 68.0161C82.0322 69.1335 76.1765 69.0164 74.529 68.8987Z" fill="#F16310"/>
<path d="M78.3535 64.4858C77.1767 64.7212 73.3522 66.4471 71.587 67.2806C70.8516 67.628 79.5793 66.1039 82.325 65.3684C82.8742 65.2213 79.5302 64.2505 78.3535 64.4858Z" fill="#F16310"/>
</g>
<path d="M0.0168575 101.305C0.17313 100.687 3.10397 101.178 4.64751 101.305L43.1399 105.371C65.9717 107.192 112.221 110.559 114.143 111.47C116.555 112.614 116.362 114.139 115.012 114.901C114.123 115.403 105.364 114.012 100.541 113.503L48.2529 108.167L90.9901 114.901C97.4538 115.621 110.545 117.585 111.635 117.824C112.793 118.078 113.407 119.562 112.503 120.619C111.635 121.636 105.654 120.365 102.664 119.73L102.663 119.73L35.5186 108.167L12.0759 104.228C8.82797 103.719 2.33219 102.576 1.84982 102.449C1.34038 102.314 -0.176085 102.067 0.0168575 101.305Z" fill="black"/>
<defs>
<filter id="filter0_d_5_57" x="4.99997" y="0" width="106" height="106" filterUnits="userSpaceOnUse" color-interpolation-filters="sRGB">
<feFlood flood-opacity="0" result="BackgroundImageFix"/>
<feColorMatrix in="SourceAlpha" type="matrix" values="0 0 0 0 0 0 0 0 0 0 0 0 0 0 0 0 0 0 127 0" result="hardAlpha"/>
<feMorphology radius="3" operator="dilate" in="SourceAlpha" result="effect1_dropShadow_5_57"/>
<feOffset dy="4"/>
<feGaussianBlur stdDeviation="5"/>
<feComposite in2="hardAlpha" operator="out"/>
<feColorMatrix type="matrix" values="0 0 0 0 0.898039 0 0 0 0 0.0196078 0 0 0 0 0.0745098 0 0 0 0.25 0"/>
<feBlend mode="normal" in2="BackgroundImageFix" result="effect1_dropShadow_5_57"/>
<feBlend mode="normal" in="SourceGraphic" in2="effect1_dropShadow_5_57" result="shape"/>
</filter>
<filter id="filter1_d_5_57" x="8.7408" y="42.5" width="95.6183" height="95.5022" filterUnits="userSpaceOnUse" color-interpolation-filters="sRGB">
<feFlood flood-opacity="0" result="BackgroundImageFix"/>
<feColorMatrix in="SourceAlpha" type="matrix" values="0 0 0 0 0 0 0 0 0 0 0 0 0 0 0 0 0 0 127 0" result="hardAlpha"/>
<feOffset dy="20"/>
<feGaussianBlur stdDeviation="13.5"/>
<feComposite in2="hardAlpha" operator="out"/>
<feColorMatrix type="matrix" values="0 0 0 0 0 0 0 0 0 0 0 0 0 0 0 0 0 0 0.25 0"/>
<feBlend mode="normal" in2="BackgroundImageFix" result="effect1_dropShadow_5_57"/>
<feBlend mode="normal" in="SourceGraphic" in2="effect1_dropShadow_5_57" result="shape"/>
</filter>
<filter id="filter2_d_5_57" x="9.49863" y="57.9977" width="51.6183" height="51.5022" filterUnits="userSpaceOnUse" color-interpolation-filters="sRGB">
<feFlood flood-opacity="0" result="BackgroundImageFix"/>
<feColorMatrix in="SourceAlpha" type="matrix" values="0 0 0 0 0 0 0 0 0 0 0 0 0 0 0 0 0 0 127 0" result="hardAlpha"/>
<feOffset dy="4"/>
<feGaussianBlur stdDeviation="2.5"/>
<feComposite in2="hardAlpha" operator="out"/>
<feColorMatrix type="matrix" values="0 0 0 0 0 0 0 0 0 0 0 0 0 0 0 0 0 0 0.25 0"/>
<feBlend mode="normal" in2="BackgroundImageFix" result="effect1_dropShadow_5_57"/>
<feBlend mode="normal" in="SourceGraphic" in2="effect1_dropShadow_5_57" result="shape"/>
</filter>
<filter id="filter3_d_5_57" x="53.3936" y="57.9141" width="51.6183" height="51.5022" filterUnits="userSpaceOnUse" color-interpolation-filters="sRGB">
<feFlood flood-opacity="0" result="BackgroundImageFix"/>
<feColorMatrix in="SourceAlpha" type="matrix" values="0 0 0 0 0 0 0 0 0 0 0 0 0 0 0 0 0 0 127 0" result="hardAlpha"/>
<feOffset dy="4"/>
<feGaussianBlur stdDeviation="2.5"/>
<feComposite in2="hardAlpha" operator="out"/>
<feColorMatrix type="matrix" values="0 0 0 0 0 0 0 0 0 0 0 0 0 0 0 0 0 0 0.25 0"/>
<feBlend mode="normal" in2="BackgroundImageFix" result="effect1_dropShadow_5_57"/>
<feBlend mode="normal" in="SourceGraphic" in2="effect1_dropShadow_5_57" result="shape"/>
</filter>
<linearGradient id="paint0_linear_5_57" x1="39.0677" y1="70.186" x2="73.4881" y2="70.4801" gradientUnits="userSpaceOnUse">
<stop stop-color="white"/>
<stop offset="0.357004" stop-color="#8F8F8F"/>
<stop offset="0.615" stop-color="#2D2D2D"/>
<stop offset="1"/>
</linearGradient>
<linearGradient id="paint1_linear_5_57" x1="17.8255" y1="79.6837" x2="52.246" y2="79.9779" gradientUnits="userSpaceOnUse">
<stop stop-color="white"/>
<stop offset="0.357004" stop-color="#8F8F8F"/>
<stop offset="0.615" stop-color="#2D2D2D"/>
<stop offset="1"/>
</linearGradient>
<linearGradient id="paint2_linear_5_57" x1="61.7204" y1="79.6001" x2="96.1409" y2="79.8943" gradientUnits="userSpaceOnUse">
<stop stop-color="white"/>
<stop offset="0.357004" stop-color="#8F8F8F"/>
<stop offset="0.615" stop-color="#2D2D2D"/>
<stop offset="1"/>
</linearGradient>
</defs>
</svg>
